<mxfile host="drawio-plugin" modified="2024-03-15T12:17:03.021Z" agent="5.0 (Windows NT 10.0; Win64; x64) AppleWebKit/537.36 (KHTML, like Gecko) Chrome/111.0.0.0 Safari/537.36" etag="R9IfchH86YI_D7bvNZ5H" version="20.5.3" type="embed"><diagram id="23iRSUPoRavnBvh4doch" name="Page-1"><mxGraphModel dx="257" dy="333" grid="1" gridSize="10" guides="1" tooltips="1" connect="1" arrows="1" fold="1" page="1" pageScale="1" pageWidth="827" pageHeight="1169" math="0" shadow="0"><root><mxCell id="0"/><mxCell id="1" parent="0"/><mxCell id="3" value="Tank" style="swimlane;fontStyle=1;align=center;verticalAlign=top;childLayout=stackLayout;horizontal=1;startSize=26;horizontalStack=0;resizeParent=1;resizeParentMax=0;resizeLast=0;collapsible=1;marginBottom=0;" parent="1" vertex="1"><mxGeometry x="560" y="520" width="160" height="480" as="geometry"/></mxCell><mxCell id="4" value="- id: String&#10;- name: Sting&#10;- weight: Integer&#10;- base: String&#10;- chassis: String&#10;- engine: String&#10;- tower: String&#10;- gun: String&#10;- machineGun: String&#10;" style="text;strokeColor=none;fillColor=none;align=left;verticalAlign=top;spacingLeft=4;spacingRight=4;overflow=hidden;rotatable=0;points=[[0,0.5],[1,0.5]];portConstraint=eastwest;" parent="3" vertex="1"><mxGeometry y="26" width="160" height="144" as="geometry"/></mxCell><mxCell id="5" value="" style="line;strokeWidth=1;fillColor=none;align=left;verticalAlign=middle;spacingTop=-1;spacingLeft=3;spacingRight=3;rotatable=0;labelPosition=right;points=[];portConstraint=eastwest;strokeColor=inherit;" parent="3" vertex="1"><mxGeometry y="170" width="160" height="8" as="geometry"/></mxCell><mxCell id="6" value="+ Tank(): Tank&#10;&#10;+ getId(): String&#10;+ getName(): Sting&#10;+ getWeight(): Integer&#10;+ getBase(): String&#10;+ getChassis(): String&#10;+ getEngine(): String&#10;+ getTower(): String&#10;+ getGun(): String&#10;+ getMachineGun(): String&#10;&#10;+ setId(String)&#10;+ setName(Sting)&#10;+ setWeight(Integer)&#10;+ setBase(String)&#10;+ setChassis(String)&#10;+ setEngine(String)&#10;+ setTower(String)&#10;+ setGun(String)&#10;+ setMachineGun(String)&#10;" style="text;strokeColor=none;fillColor=none;align=left;verticalAlign=top;spacingLeft=4;spacingRight=4;overflow=hidden;rotatable=0;points=[[0,0.5],[1,0.5]];portConstraint=eastwest;" parent="3" vertex="1"><mxGeometry y="178" width="160" height="302" as="geometry"/></mxCell><mxCell id="12" value="&lt;p style=&quot;margin:0px;margin-top:4px;text-align:center;&quot;&gt;&lt;i&gt;&amp;lt;&amp;lt;Interface&amp;gt;&amp;gt;&lt;/i&gt;&lt;br&gt;&lt;b&gt;TankBuilder&lt;/b&gt;&lt;/p&gt;&lt;hr size=&quot;1&quot;&gt;&lt;p style=&quot;margin:0px;margin-left:4px;&quot;&gt;+ BASE: String&lt;/p&gt;&lt;p style=&quot;margin:0px;margin-left:4px;&quot;&gt;+ CHASSIS: String&lt;/p&gt;&lt;p style=&quot;margin:0px;margin-left:4px;&quot;&gt;+ ENGINE: String&lt;/p&gt;&lt;p style=&quot;margin:0px;margin-left:4px;&quot;&gt;+ TOWER: String&lt;/p&gt;&lt;p style=&quot;margin:0px;margin-left:4px;&quot;&gt;+ GUN: String&lt;/p&gt;&lt;p style=&quot;margin:0px;margin-left:4px;&quot;&gt;+ MACHINE_GUN: String&lt;/p&gt;&lt;hr size=&quot;1&quot;&gt;&lt;p style=&quot;margin:0px;margin-left:4px;&quot;&gt;+ init()&lt;/p&gt;&lt;p style=&quot;margin:0px;margin-left:4px;&quot;&gt;+ setIdAndName(): TankBuilder&lt;/p&gt;&lt;p style=&quot;margin:0px;margin-left:4px;&quot;&gt;+ setWeight(): TankBuilder&lt;/p&gt;&lt;p style=&quot;margin:0px;margin-left:4px;&quot;&gt;+ buildBase(): TankBuilder&lt;/p&gt;&lt;p style=&quot;margin:0px;margin-left:4px;&quot;&gt;+ buildChassis(): TankBuilder&lt;/p&gt;&lt;p style=&quot;margin:0px;margin-left:4px;&quot;&gt;+ buildEngine(): TankBuilder&lt;/p&gt;&lt;p style=&quot;margin:0px;margin-left:4px;&quot;&gt;+ buildTower(): TankBuilder&lt;/p&gt;&lt;p style=&quot;margin:0px;margin-left:4px;&quot;&gt;+ setGun(): TankBuilder&lt;/p&gt;&lt;p style=&quot;margin:0px;margin-left:4px;&quot;&gt;+ setMachinegun(): TankBuilder&lt;/p&gt;&lt;p style=&quot;margin:0px;margin-left:4px;&quot;&gt;+ build(): Tank&lt;/p&gt;" style="verticalAlign=top;align=left;overflow=fill;fontSize=12;fontFamily=Helvetica;html=1;" parent="1" vertex="1"><mxGeometry x="200" y="20" width="200" height="300" as="geometry"/></mxCell><mxCell id="13" value="LightTankBuilder" style="swimlane;fontStyle=1;align=center;verticalAlign=top;childLayout=stackLayout;horizontal=1;startSize=26;horizontalStack=0;resizeParent=1;resizeParentMax=0;resizeLast=0;collapsible=1;marginBottom=0;" parent="1" vertex="1"><mxGeometry x="80" y="360" width="220" height="240" as="geometry"/></mxCell><mxCell id="14" value="- NAME: String&#10;- TEXT: String&#10;- tank: Tank" style="text;strokeColor=none;fillColor=none;align=left;verticalAlign=top;spacingLeft=4;spacingRight=4;overflow=hidden;rotatable=0;points=[[0,0.5],[1,0.5]];portConstraint=eastwest;" parent="13" vertex="1"><mxGeometry y="26" width="220" height="54" as="geometry"/></mxCell><mxCell id="15" value="" style="line;strokeWidth=1;fillColor=none;align=left;verticalAlign=middle;spacingTop=-1;spacingLeft=3;spacingRight=3;rotatable=0;labelPosition=right;points=[];portConstraint=eastwest;strokeColor=inherit;" parent="13" vertex="1"><mxGeometry y="80" width="220" height="8" as="geometry"/></mxCell><mxCell id="16" value="+ init()&#10;+ setIdAndName(): TankBuilder&#10;+ setWeight(): TankBuilder&#10;+ buildBase(): TankBuilder&#10;+ buildChassis(): TankBuilder&#10;+ buildEngine(): TankBuilder&#10;+ buildTower(): TankBuilder&#10;+ setGun(): TankBuilder&#10;+ setMachinegun(): TankBuilder&#10;+ build(): Tank" style="text;strokeColor=none;fillColor=none;align=left;verticalAlign=top;spacingLeft=4;spacingRight=4;overflow=hidden;rotatable=0;points=[[0,0.5],[1,0.5]];portConstraint=eastwest;" parent="13" vertex="1"><mxGeometry y="88" width="220" height="152" as="geometry"/></mxCell><mxCell id="17" value="MiddleTankBuilder" style="swimlane;fontStyle=1;align=center;verticalAlign=top;childLayout=stackLayout;horizontal=1;startSize=26;horizontalStack=0;resizeParent=1;resizeParentMax=0;resizeLast=0;collapsible=1;marginBottom=0;" parent="1" vertex="1"><mxGeometry x="80" y="920" width="220" height="240" as="geometry"/></mxCell><mxCell id="18" value="- NAME: String&#10;- TEXT: String&#10;- tank: Tank" style="text;strokeColor=none;fillColor=none;align=left;verticalAlign=top;spacingLeft=4;spacingRight=4;overflow=hidden;rotatable=0;points=[[0,0.5],[1,0.5]];portConstraint=eastwest;" parent="17" vertex="1"><mxGeometry y="26" width="220" height="54" as="geometry"/></mxCell><mxCell id="19" value="" style="line;strokeWidth=1;fillColor=none;align=left;verticalAlign=middle;spacingTop=-1;spacingLeft=3;spacingRight=3;rotatable=0;labelPosition=right;points=[];portConstraint=eastwest;strokeColor=inherit;" parent="17" vertex="1"><mxGeometry y="80" width="220" height="8" as="geometry"/></mxCell><mxCell id="20" value="+ init()&#10;+ setIdAndName(): TankBuilder&#10;+ setWeight(): TankBuilder&#10;+ buildBase(): TankBuilder&#10;+ buildChassis(): TankBuilder&#10;+ buildEngine(): TankBuilder&#10;+ buildTower(): TankBuilder&#10;+ setGun(): TankBuilder&#10;+ setMachinegun(): TankBuilder&#10;+ build(): Tank" style="text;strokeColor=none;fillColor=none;align=left;verticalAlign=top;spacingLeft=4;spacingRight=4;overflow=hidden;rotatable=0;points=[[0,0.5],[1,0.5]];portConstraint=eastwest;" parent="17" vertex="1"><mxGeometry y="88" width="220" height="152" as="geometry"/></mxCell><mxCell id="21" value="HeavyTankBuilder" style="swimlane;fontStyle=1;align=center;verticalAlign=top;childLayout=stackLayout;horizontal=1;startSize=26;horizontalStack=0;resizeParent=1;resizeParentMax=0;resizeLast=0;collapsible=1;marginBottom=0;" parent="1" vertex="1"><mxGeometry x="80" y="640" width="220" height="240" as="geometry"/></mxCell><mxCell id="22" value="- NAME: String&#10;- TEXT: String&#10;- tank: Tank" style="text;strokeColor=none;fillColor=none;align=left;verticalAlign=top;spacingLeft=4;spacingRight=4;overflow=hidden;rotatable=0;points=[[0,0.5],[1,0.5]];portConstraint=eastwest;" parent="21" vertex="1"><mxGeometry y="26" width="220" height="54" as="geometry"/></mxCell><mxCell id="23" value="" style="line;strokeWidth=1;fillColor=none;align=left;verticalAlign=middle;spacingTop=-1;spacingLeft=3;spacingRight=3;rotatable=0;labelPosition=right;points=[];portConstraint=eastwest;strokeColor=inherit;" parent="21" vertex="1"><mxGeometry y="80" width="220" height="8" as="geometry"/></mxCell><mxCell id="24" value="+ init()&#10;+ setIdAndName(): TankBuilder&#10;+ setWeight(): TankBuilder&#10;+ buildBase(): TankBuilder&#10;+ buildChassis(): TankBuilder&#10;+ buildEngine(): TankBuilder&#10;+ buildTower(): TankBuilder&#10;+ setGun(): TankBuilder&#10;+ setMachinegun(): TankBuilder&#10;+ build(): Tank" style="text;strokeColor=none;fillColor=none;align=left;verticalAlign=top;spacingLeft=4;spacingRight=4;overflow=hidden;rotatable=0;points=[[0,0.5],[1,0.5]];portConstraint=eastwest;" parent="21" vertex="1"><mxGeometry y="88" width="220" height="152" as="geometry"/></mxCell><mxCell id="25" value="" style="endArrow=block;dashed=1;endFill=0;endSize=12;html=1;rounded=0;exitX=1;exitY=0.5;exitDx=0;exitDy=0;" parent="1" source="14" edge="1"><mxGeometry width="160" relative="1" as="geometry"><mxPoint x="270" y="480" as="sourcePoint"/><mxPoint x="300" y="413" as="targetPoint"/></mxGeometry></mxCell><mxCell id="27" value="" style="endArrow=block;dashed=1;endFill=0;endSize=12;html=1;rounded=0;entryX=0;entryY=0.25;entryDx=0;entryDy=0;" parent="1" target="12" edge="1"><mxGeometry width="160" relative="1" as="geometry"><mxPoint x="20" y="930" as="sourcePoint"/><mxPoint x="80" y="120" as="targetPoint"/><Array as="points"><mxPoint x="20" y="95"/></Array></mxGeometry></mxCell><mxCell id="28" value="" style="endArrow=block;dashed=1;endFill=0;endSize=12;html=1;rounded=0;exitX=-0.009;exitY=0.06;exitDx=0;exitDy=0;exitPerimeter=0;" parent="1" source="21" edge="1"><mxGeometry width="160" relative="1" as="geometry"><mxPoint x="250" y="740" as="sourcePoint"/><mxPoint x="20" y="654" as="targetPoint"/><Array as="points"><mxPoint x="50" y="654"/></Array></mxGeometry></mxCell><mxCell id="29" value="" style="endArrow=block;dashed=1;endFill=0;endSize=12;html=1;rounded=0;exitX=0.005;exitY=0.044;exitDx=0;exitDy=0;exitPerimeter=0;" parent="1" source="17" edge="1"><mxGeometry width="160" relative="1" as="geometry"><mxPoint x="250" y="890" as="sourcePoint"/><mxPoint x="20" y="930" as="targetPoint"/></mxGeometry></mxCell><mxCell id="30" value="TankBuilderDdirector" style="swimlane;fontStyle=1;align=center;verticalAlign=top;childLayout=stackLayout;horizontal=1;startSize=26;horizontalStack=0;resizeParent=1;resizeParentMax=0;resizeLast=0;collapsible=1;marginBottom=0;" parent="1" vertex="1"><mxGeometry x="545" y="320" width="190" height="52" as="geometry"/></mxCell><mxCell id="33" value="+ buildTank(TankBuilder): Tank" style="text;strokeColor=none;fillColor=none;align=left;verticalAlign=top;spacingLeft=4;spacingRight=4;overflow=hidden;rotatable=0;points=[[0,0.5],[1,0.5]];portConstraint=eastwest;" parent="30" vertex="1"><mxGeometry y="26" width="190" height="26" as="geometry"/></mxCell><mxCell id="35" value="return" style="html=1;verticalAlign=bottom;endArrow=open;dashed=1;endSize=8;rounded=0;exitX=1;exitY=0.5;exitDx=0;exitDy=0;entryX=1;entryY=0.3333333333333333;entryDx=0;entryDy=0;entryPerimeter=0;" parent="1" source="4" target="36" edge="1"><mxGeometry relative="1" as="geometry"><mxPoint x="450" y="310" as="sourcePoint"/><mxPoint x="680" y="240" as="targetPoint"/><Array as="points"><mxPoint x="760" y="618"/><mxPoint x="760" y="400"/><mxPoint x="760" y="133"/></Array></mxGeometry></mxCell><mxCell id="36" value="Actor" style="shape=umlActor;verticalLabelPosition=bottom;verticalAlign=top;html=1;outlineConnect=0;" parent="1" vertex="1"><mxGeometry x="600" y="80" width="80" height="160" as="geometry"/></mxCell><mxCell id="38" value="Use" style="endArrow=open;endSize=12;dashed=1;html=1;rounded=0;entryX=0.184;entryY=0;entryDx=0;entryDy=0;entryPerimeter=0;exitX=0;exitY=0.3333333333333333;exitDx=0;exitDy=0;exitPerimeter=0;" parent="1" source="36" target="30" edge="1"><mxGeometry x="-0.0191" width="160" relative="1" as="geometry"><mxPoint x="560" y="160" as="sourcePoint"/><mxPoint x="480" y="280" as="targetPoint"/><Array as="points"><mxPoint x="580" y="133"/><mxPoint x="580" y="280"/></Array><mxPoint as="offset"/></mxGeometry></mxCell><mxCell id="42" value="" style="endArrow=block;dashed=1;endFill=0;endSize=12;html=1;rounded=0;exitX=-0.009;exitY=0.06;exitDx=0;exitDy=0;exitPerimeter=0;" parent="1" edge="1"><mxGeometry width="160" relative="1" as="geometry"><mxPoint x="79.99999999999987" y="380.39999999999986" as="sourcePoint"/><mxPoint x="22" y="380" as="targetPoint"/></mxGeometry></mxCell><mxCell id="47" value="return" style="html=1;verticalAlign=bottom;endArrow=open;dashed=1;endSize=8;rounded=0;" parent="1" source="20" target="49" edge="1"><mxGeometry relative="1" as="geometry"><mxPoint x="120" y="960" as="sourcePoint"/><mxPoint x="350" y="1084" as="targetPoint"/></mxGeometry></mxCell><mxCell id="49" value="MiddleTank" style="rounded=1;whiteSpace=wrap;html=1;" parent="1" vertex="1"><mxGeometry x="338" y="1070.5" width="76" height="27" as="geometry"/></mxCell><mxCell id="50" value="HeavyTank" style="rounded=1;whiteSpace=wrap;html=1;" parent="1" vertex="1"><mxGeometry x="338" y="789" width="76" height="30" as="geometry"/></mxCell><mxCell id="51" value="LightTank" style="rounded=1;whiteSpace=wrap;html=1;" parent="1" vertex="1"><mxGeometry x="338" y="509" width="76" height="30" as="geometry"/></mxCell><mxCell id="52" value="return" style="html=1;verticalAlign=bottom;endArrow=open;dashed=1;endSize=8;rounded=0;exitX=1;exitY=0.5;exitDx=0;exitDy=0;entryX=0;entryY=0.5;entryDx=0;entryDy=0;" parent="1" source="16" target="51" edge="1"><mxGeometry relative="1" as="geometry"><mxPoint x="490" y="700" as="sourcePoint"/><mxPoint x="410" y="700" as="targetPoint"/></mxGeometry></mxCell><mxCell id="53" value="return" style="html=1;verticalAlign=bottom;endArrow=open;dashed=1;endSize=8;rounded=0;exitX=1;exitY=0.5;exitDx=0;exitDy=0;entryX=0;entryY=0.5;entryDx=0;entryDy=0;" parent="1" source="24" target="50" edge="1"><mxGeometry relative="1" as="geometry"><mxPoint x="420" y="760" as="sourcePoint"/><mxPoint x="340" y="760" as="targetPoint"/></mxGeometry></mxCell><mxCell id="54" value="Use" style="endArrow=open;endSize=12;dashed=1;html=1;rounded=0;exitX=0;exitY=0.25;exitDx=0;exitDy=0;entryX=1;entryY=0.25;entryDx=0;entryDy=0;" parent="1" source="30" target="12" edge="1"><mxGeometry width="160" relative="1" as="geometry"><mxPoint x="250" y="390" as="sourcePoint"/><mxPoint x="410" y="390" as="targetPoint"/><Array as="points"><mxPoint x="480" y="333"/><mxPoint x="480" y="95"/></Array></mxGeometry></mxCell></root></mxGraphModel></diagram></mxfile>